<svg id="_0177_coding_1" xmlns="http://www.w3.org/2000/svg" viewBox="0 0 500 500" data-imageid="coding-1-60" imageName="Coding 1" class="illustrations_image" style="width: 188px;"><defs><style>.cls-1_coding-1-60{fill:#fff;}.cls-2_coding-1-60{opacity:.39;}.cls-2_coding-1-60,.cls-3_coding-1-60,.cls-4_coding-1-60{fill:none;}.cls-5_coding-1-60{fill:#f4a28c;}.cls-6_coding-1-60{fill:#e6e6e6;}.cls-3_coding-1-60{opacity:.08;}.cls-4_coding-1-60{opacity:.59;}.cls-7_coding-1-60{fill:#24285b;}.cls-8_coding-1-60{fill:#000001;}.cls-9_coding-1-60{fill:#ffd200;}.cls-10_coding-1-60{fill:#68e1fd;}</style></defs><g id="code2_coding-1-60"><rect class="cls-7_coding-1-60" x="26.06" y="67.51" width="212.1" height="212.1"/><rect class="cls-10_coding-1-60 targetColor" x="88.05" y="160.58" width="68.13" height="7.62" style="fill: rgb(0, 174, 224);"/><rect class="cls-9_coding-1-60" x="107.58" y="139.35" width="60.91" height="7.62"/><rect class="cls-9_coding-1-60" x="165.64" y="219.82" width="31.77" height="7.62"/><rect class="cls-9_coding-1-60" x="133.54" y="198.38" width="31.77" height="7.62"/><rect class="cls-10_coding-1-60 targetColor" x="107.58" y="179.01" width="81.18" height="7.62" style="fill: rgb(0, 174, 224);"/><rect class="cls-1_coding-1-60" x="62.77" y="179.01" width="30.53" height="7.62"/><rect class="cls-1_coding-1-60" x="93.17" y="199.03" width="30.53" height="7.62"/><rect class="cls-1_coding-1-60" x="64.25" y="239.91" width="30.53" height="7.62"/><rect class="cls-1_coding-1-60" x="43.23" y="160.58" width="30.53" height="7.62"/><circle class="cls-1_coding-1-60" cx="39.94" cy="80.36" r="3.59"/><circle class="cls-10_coding-1-60 targetColor" cx="50.63" cy="80.36" r="3.59" style="fill: rgb(0, 174, 224);"/><circle class="cls-9_coding-1-60" cx="60.71" cy="80.36" r="3.59"/><rect class="cls-1_coding-1-60" x="43.23" y="102.6" width="30.53" height="7.62"/><rect class="cls-1_coding-1-60" x="62.77" y="121.67" width="30.53" height="7.62"/><rect class="cls-9_coding-1-60" x="107.58" y="121.67" width="60.91" height="7.62"/><rect class="cls-1_coding-1-60" x="62.77" y="139.35" width="30.53" height="7.62"/><rect class="cls-10_coding-1-60 targetColor" x="85.97" y="102.6" width="62.9" height="7.62" style="fill: rgb(0, 174, 224);"/><rect class="cls-1_coding-1-60" x="44.09" y="219.82" width="30.53" height="7.62"/><rect class="cls-10_coding-1-60 targetColor" x="86.83" y="219.82" width="62.9" height="7.62" style="fill: rgb(0, 174, 224);"/><rect class="cls-10_coding-1-60 targetColor" x="106.88" y="239.87" width="62.9" height="7.62" style="fill: rgb(0, 174, 224);"/><rect class="cls-10_coding-1-60 targetColor" x="162.02" y="102.6" width="44.66" height="7.62" style="fill: rgb(0, 174, 224);"/><g class="cls-3_coding-1-60"><path class="cls-8_coding-1-60" d="m211.7,164.39s-19.58,5.23-10.98,33.99c8.6,28.77,14.38,73.94-11.95,80.59h56.9l-4.66-72.97-29.31-41.61Z"/></g></g><g id="code1_coding-1-60"><rect class="cls-9_coding-1-60" x="291.86" y="45.26" width="108.16" height="74.36"/><path class="cls-1_coding-1-60" d="m331.41,97.04c-.54,0-1.09-.18-1.55-.54l-16.22-12.82c-.6-.47-.95-1.19-.95-1.95,0-.76.34-1.48.93-1.96l16.22-13.05c1.08-.87,2.65-.7,3.52.38.87,1.08.7,2.65-.38,3.52l-13.77,11.08,13.75,10.87c1.09.86,1.27,2.43.41,3.52-.49.63-1.23.95-1.97.95Z"/><path class="cls-1_coding-1-60" d="m360.77,97.04c-.74,0-1.47-.33-1.97-.95-.86-1.08-.67-2.66.41-3.52l13.75-10.87-13.77-11.08c-1.08-.87-1.25-2.44-.38-3.52.87-1.08,2.44-1.25,3.52-.38l16.22,13.05c.59.48.94,1.2.93,1.96,0,.76-.35,1.48-.95,1.95l-16.22,12.82c-.46.36-1.01.54-1.55.54Z"/><path class="cls-1_coding-1-60" d="m339.28,97.04c-.35,0-.7-.07-1.04-.23-1.26-.57-1.81-2.06-1.24-3.32l11.81-25.87c.58-1.26,2.06-1.81,3.32-1.24,1.26.57,1.81,2.06,1.24,3.32l-11.81,25.87c-.42.92-1.33,1.46-2.28,1.46Z"/></g><g id="panel_1_coding-1-60"><rect class="cls-6_coding-1-60" x="291.86" y="164.96" width="184.8" height="106.88"/><circle class="cls-7_coding-1-60" cx="323.42" cy="198.94" r="10.73"/><circle class="cls-10_coding-1-60 targetColor" cx="323.42" cy="236.33" r="10.73" style="fill: rgb(0, 174, 224);"/><g class="cls-4_coding-1-60"><rect class="cls-1_coding-1-60" x="348.25" y="191.62" width="96.84" height="13.06"/></g><g class="cls-4_coding-1-60"><rect class="cls-1_coding-1-60" x="348.25" y="229.41" width="96.84" height="13.06"/></g></g><g id="coder_coding-1-60"><path class="cls-10_coding-1-60 targetColor" d="m175.63,285.46s-30.7,20.09-56.59,46.32c-25.89,26.23-46.35,37.16-35.49,71.68h314.85s4.59-22.64-16.29-35.55-45.87-68.2-108.12-89.79l-98.36,7.34Z" style="fill: rgb(0, 174, 224);"/><g class="cls-2_coding-1-60"><path class="cls-1_coding-1-60" d="m175.63,285.46s-30.7,20.09-56.59,46.32c-25.89,26.23-46.35,37.16-35.49,71.68h314.85s4.59-22.64-16.29-35.55-45.87-68.2-108.12-89.79l-98.36,7.34Z"/></g><path class="cls-5_coding-1-60" d="m257.35,200.76s2.76-6.29,6.51-5.14c3.75,1.15,7.06,17.63-6.13,16.77l-.38-11.63Z"/><polygon class="cls-5_coding-1-60" points="234.25 229.16 226.55 270.54 254.6 270.54 249.65 229.16 234.25 229.16"/><path class="cls-5_coding-1-60" d="m224.17,192.44s-5.95,42.81,14.22,46.64,22.93-46.64,22.93-46.64c0,0,3.26-15.44-7.92-25.48s-34.4-.06-29.24,25.48Z"/><path class="cls-9_coding-1-60" d="m223.73,200.76l-2.07-5.66c-1.5-4.11-3.29-8.11-5.32-11.99-3.58-6.85-8.74-20.51,1.58-28.63,14.19-11.18,18.92,3.02,27.95-7.52,9.03-10.54,21.5,3.65,23.22,9.24,1.72,5.59,13.76,9.46,9.89,21.07-3.87,11.61-3.94,23.74-17.88,21.76-13.94-1.98-28.84-13.16-28.84-13.16,0,0-3.99,6.13-8.52,14.89Z"/><circle class="cls-1_coding-1-60" cx="232.88" cy="209.7" r="7.7"/><circle class="cls-1_coding-1-60" cx="249.84" cy="210.38" r="7.7"/><path class="cls-10_coding-1-60 targetColor" d="m162.02,417.19s-59.26-135.64,64.53-146.65h28.05s118.67,17.09,59.62,143.78l-152.2,2.87Z" style="fill: rgb(0, 174, 224);"/><path class="cls-5_coding-1-60" d="m223.73,200.76s-2.76-6.29-6.51-5.14-5.75,18.57,7.45,17.71l-.94-12.56Z"/><g class="cls-3_coding-1-60"><path class="cls-8_coding-1-60" d="m232.85,236.67s8.41,5.1,15.09-.42c0,0,.47,12.79-16.78,9.51l1.69-9.09Z"/></g><path class="cls-10_coding-1-60 targetColor" d="m86.83,397.13s7.56-22.79,27.34-25.37c19.78-2.58,88.57,10.32,88.57,10.32v21.38h-119.1l3.19-6.33Z" style="fill: rgb(0, 174, 224);"/><g class="cls-2_coding-1-60"><path class="cls-1_coding-1-60" d="m86.83,397.13s7.56-22.79,27.34-25.37c19.78-2.58,88.57,10.32,88.57,10.32v21.38h-119.1l3.19-6.33Z"/></g><path class="cls-10_coding-1-60 targetColor" d="m395.64,396.73s-7.56-22.79-27.34-25.37c-19.78-2.58-88.57,10.32-88.57,10.32v21.38s119.1,0,119.1,0l-3.19-6.33Z" style="fill: rgb(0, 174, 224);"/><g class="cls-3_coding-1-60"><polygon class="cls-8_coding-1-60" points="186.43 335.42 165.64 335.42 181.53 397.41 177.93 417.19 205.01 416.33 211.83 359.15 186.43 335.42"/></g><g class="cls-2_coding-1-60"><path class="cls-1_coding-1-60" d="m395.64,396.73s-7.56-22.79-27.34-25.37c-19.78-2.58-88.57,10.32-88.57,10.32v21.38s119.1,0,119.1,0l-3.19-6.33Z"/></g><polygon class="cls-9_coding-1-60" points="199.96 381.38 182.87 307.2 300.81 307.2 281.64 387.22 279.98 403.06 203.08 403.06 199.96 381.38"/><circle class="cls-1_coding-1-60" cx="242.88" cy="342.35" r="10.22"/><rect class="cls-6_coding-1-60" x="57.11" y="400.57" width="362.88" height="74.4"/></g></svg>