<svg id="_0159_data_visualization" xmlns="http://www.w3.org/2000/svg" viewBox="0 0 500 500" data-imageid="data-visualization-52" imageName="Data Visualization" class="illustrations_image" style="width: 188px;"><defs><style>.cls-1_data-visualization-52{fill:#fff;}.cls-2_data-visualization-52{fill:#f4a28c;}.cls-3_data-visualization-52{opacity:.46;}.cls-3_data-visualization-52,.cls-4_data-visualization-52,.cls-5_data-visualization-52,.cls-6_data-visualization-52,.cls-7_data-visualization-52,.cls-8_data-visualization-52{fill:none;}.cls-9_data-visualization-52{fill:#a5a5a5;}.cls-4_data-visualization-52{opacity:.58;}.cls-10_data-visualization-52{fill:#ce8172;}.cls-11_data-visualization-52{fill:#e6e6e6;}.cls-5_data-visualization-52{opacity:.03;}.cls-6_data-visualization-52{opacity:.73;}.cls-7_data-visualization-52{opacity:.08;}.cls-8_data-visualization-52{opacity:.31;}.cls-12_data-visualization-52{fill:#24285b;}.cls-13_data-visualization-52{fill:#000001;}.cls-14_data-visualization-52{fill:#ffd200;}.cls-15_data-visualization-52{fill:#68e1fd;}</style></defs><g id="sd_data-visualization-52" class="cls-5_data-visualization-52"><ellipse class="cls-13_data-visualization-52" cx="238.36" cy="461.74" rx="217.5" ry="18"/></g><g id="person_data-visualization-52"><path class="cls-15_data-visualization-52 targetColor" d="m176.85,222.38s16.36,34.07,1.39,75.78c-14.97,41.71,17.63,62.77-45.54,68.37-63.17,5.59,44.15-144.15,44.15-144.15Z" style="fill: rgb(0, 174, 224);"/><g class="cls-3_data-visualization-52"><path class="cls-1_data-visualization-52" d="m176.85,222.38s16.36,34.07,1.39,75.78c-14.97,41.71,17.63,62.77-45.54,68.37-63.17,5.59,44.15-144.15,44.15-144.15Z"/></g><path class="cls-2_data-visualization-52" d="m134.05,133.94s5.02,9.35,6.16,16.51c.46,2.9-1.55,5.68-4.46,6.1-3.62.52-8.66.18-11.95-4.5l-6.57-7.26s-3.96-4.7-.16-11.01c3.8-6.31,14.22-5.68,16.99.17Z"/><polygon class="cls-2_data-visualization-52" points="122.11 146.13 113.77 179.89 132.7 183.16 131.2 157.93 122.11 146.13"/><path class="cls-2_data-visualization-52" d="m136.9,139.99l4.33,2.59c1.07.64,1.11,2.17.08,2.87l-3.43,2.3-.98-7.76Z"/><g class="cls-8_data-visualization-52"><path class="cls-10_data-visualization-52" d="m131.3,156.6s-6.95-1.49-9.26-3.68c0,0,.66,15.81,9.93,17.87l-.66-14.2Z"/></g><path class="cls-2_data-visualization-52" d="m125.87,145.65s-1.68-3.72-4.38-2.22c-2.7,1.5-.29,6.89,3.76,5.75l.62-3.53Z"/><path class="cls-12_data-visualization-52" d="m112.77,143.36l3,3.24s4.77,8.98,12.25,12.49c7.49,3.51,16.22.47,15.47-6.44-.86-7.92-5.62-4.9-12.61-3.66-7,1.24-8.03-8.28-8.03-8.28,3.05-.64,4.79-2.75,5.77-4.91l3.6-2.98c3.47-2.88,3.58-8.18.21-11.17-1.9-1.68-4.27-2.97-7.04-2.84-7.45.37-21.89,14.97-12.62,24.54Z"/><path class="cls-2_data-visualization-52" d="m119,142.95s-5.7-1.84-6.66,2.58,5.36,6.29,8.61,3c0,0-2.06-2.24-1.95-5.58Z"/><rect class="cls-11_data-visualization-52" x="41.48" y="369.52" width="122.96" height="87.87" transform="translate(205.92 826.9) rotate(-180)"/><g class="cls-7_data-visualization-52"><polygon class="cls-13_data-visualization-52" points="131.98 457.39 137.9 380.02 162.56 383.78 169.9 413.45 164.44 457.39 131.98 457.39"/></g><path class="cls-15_data-visualization-52 targetColor" d="m135.07,447.23s2.64,7.32,9.25,7.88,8.35,7.03,2.4,8.72c-5.95,1.69-21.3-5.96-21.3-5.96l.43-9.55,9.22-1.09Z" style="fill: rgb(0, 174, 224);"/><path class="cls-15_data-visualization-52 targetColor" d="m134.32,182.78l-18.93-3.26s-62.97.1-74,21.66c-11.02,21.56-8.71,101.84,27.72,167.74l74.59,2.16s-4.14-48.4,9.76-74.76c13.9-26.36,57.1-82.35-19.13-113.54Z" style="fill: rgb(0, 174, 224);"/><path class="cls-12_data-visualization-52" d="m69.1,368.91l36.48-5.5c22.57-3.4,42.28,15.4,39.94,38.1l-4.76,46.35h-17.9s1.55-43.39,1.55-43.39c.37-10.35-8.79-18.47-19.02-16.83-15.53,2.5-34.77,1.42-36.3-18.73Z"/><path class="cls-15_data-visualization-52 targetColor" d="m172.21,447.23s2.64,7.32,9.25,7.88c6.62.56,8.35,7.03,2.4,8.72-5.95,1.69-21.3-5.96-21.3-5.96l.43-9.55,9.22-1.09Z" style="fill: rgb(0, 174, 224);"/><g class="cls-7_data-visualization-52"><path class="cls-13_data-visualization-52" d="m75.5,208.91s20.67,18.13,16.52,38.14c-.67,3.23-1.37,7.14-2.07,11.43-5.48,33.59,4.41,67.88,26.81,93.5l13.03,14.9-60.69,2.04-5.19-10.17-28.33-47.09,39.92-102.75Z"/></g><path class="cls-12_data-visualization-52" d="m106.24,368.91l36.48-5.5c22.57-3.4,42.28,15.4,39.94,38.1l-4.76,46.35h-17.9s1.55-43.39,1.55-43.39c.37-10.35-8.79-18.47-19.02-16.83-15.53,2.5-34.77,1.42-36.3-18.73Z"/><path class="cls-15_data-visualization-52 targetColor" d="m40.33,203.16c-13.81,19.44-26.1,62.39-15.43,122.89,3.25,18.41,18.77,32.18,37.43,33.36l56.99,3.6v-18.59s-43.31-6.26-43.31-6.26c-10.08-1.46-16.47-11.54-13.51-21.28,7.63-25.11,19.44-70.62,16.39-103.06-1.85-19.7-27.1-26.79-38.56-10.66Z" style="fill: rgb(0, 174, 224);"/><g class="cls-3_data-visualization-52"><path class="cls-1_data-visualization-52" d="m40.33,203.16c-13.81,19.44-26.1,62.39-15.43,122.89,3.25,18.41,18.77,32.18,37.43,33.36l56.99,3.6v-18.59s-43.31-6.26-43.31-6.26c-10.08-1.46-16.47-11.54-13.51-21.28,7.63-25.11,19.44-70.62,16.39-103.06-1.85-19.7-27.1-26.79-38.56-10.66Z"/></g><path class="cls-2_data-visualization-52" d="m119.32,348.92s23.13-.59,19.84,11.47c-3.3,12.06-19.84,2.61-19.84,2.61v-14.08Z"/><polygon class="cls-14_data-visualization-52" points="196.27 367.35 205.61 314.57 139.39 314.57 133.65 359.56 103.29 359.98 103.29 367.35 196.27 367.35"/><circle class="cls-1_data-visualization-52" cx="169.9" cy="339.87" r="6.63"/><path class="cls-15_data-visualization-52 targetColor" d="m99.14,180.3s-7.98-8.43,13.65-9.34c21.62-.92,43.27,1.7,38.15,20.1-5.12,18.39-51.8-10.75-51.8-10.75Z" style="fill: rgb(0, 174, 224);"/><g class="cls-3_data-visualization-52"><path class="cls-1_data-visualization-52" d="m99.14,180.3s-7.98-8.43,13.65-9.34c21.62-.92,43.27,1.7,38.15,20.1-5.12,18.39-51.8-10.75-51.8-10.75Z"/></g></g><g id="data_data-visualization-52"><path class="cls-12_data-visualization-52" d="m281.15,301.96s10.01-46.2-15.62-57.4c-25.63-11.2-63.29,7.53-74.05-21.56-10.76-29.09,28.1-45.24,11.36-63.17-16.74-17.93-40.95-22.76-28.4-58.46,12.55-35.7,38.44-4.31,68.09-40.18,29.65-35.87,51.17-55.6,89.73-27.8,38.56,27.8,21.41,40.96,73.48,35.72,52.06-5.23,72.26,7.32,73.37,47.67,1.11,40.35-33.86,29.1-26.69,58.94,7.17,29.84,9.86,59.17-35.87,56.16-45.73-3.01-72.63,20.31-65.46,70.08h-69.94Z"/><circle class="cls-15_data-visualization-52 targetColor" cx="335.92" cy="147.23" r="20.95" style="fill: rgb(0, 174, 224);"/><circle class="cls-15_data-visualization-52 targetColor" cx="268.69" cy="90.64" r="11.1" style="fill: rgb(0, 174, 224);"/><circle class="cls-15_data-visualization-52 targetColor" cx="236.01" cy="207.04" r="17.67" style="fill: rgb(0, 174, 224);"/><circle class="cls-15_data-visualization-52 targetColor" cx="356.03" cy="216.04" r="11.69" style="fill: rgb(0, 174, 224);"/><circle class="cls-1_data-visualization-52" cx="418.21" cy="178.16" r="9.98"/><circle class="cls-1_data-visualization-52" cx="335.92" cy="70.96" r="5.88"/><circle class="cls-1_data-visualization-52" cx="274.57" cy="162.3" r="5.88"/><circle class="cls-1_data-visualization-52" cx="303.88" cy="234.39" r="5.88"/><circle class="cls-14_data-visualization-52" cx="208.43" cy="118.94" r="5.88"/><circle class="cls-14_data-visualization-52" cx="417.51" cy="120.76" r="25.05"/><rect class="cls-11_data-visualization-52" x="242.53" y="326.4" width="150.35" height="128.95"/><rect class="cls-9_data-visualization-52" x="227.69" y="296.13" width="178.05" height="30.27"/><rect class="cls-9_data-visualization-52" x="268.69" y="263.9" width="94.45" height="32.23"/></g><g id="plant_data-visualization-52"><g class="cls-4_data-visualization-52"><path class="cls-15_data-visualization-52 targetColor" d="m417,437.52s-13.9-3.8-16.93-16.73c0,0,21.54-4.35,22.15,17.88l-5.23-1.14Z" style="fill: rgb(0, 174, 224);"/></g><g class="cls-6_data-visualization-52"><path class="cls-15_data-visualization-52 targetColor" d="m418.7,436.14s-9.71-15.35-1.16-29.71c0,0,16.38,10.4,9.1,29.74l-7.94-.03Z" style="fill: rgb(0, 174, 224);"/></g><path class="cls-15_data-visualization-52 targetColor" d="m421.21,436.15s5.13-16.21,20.64-19.29c0,0,2.91,10.53-10.04,19.33l-10.6-.04Z" style="fill: rgb(0, 174, 224);"/><polygon class="cls-12_data-visualization-52" points="411.12 435.79 413.94 455.07 431.69 455.14 434.31 435.88 411.12 435.79"/></g></svg>