<svg id="_0465_science" xmlns="http://www.w3.org/2000/svg" viewBox="0 0 500 500" data-imageid="science-78" imageName="Science" class="illustrations_image" style="width: 188px;"><defs><style>.cls-1_science-78{fill:#fff;}.cls-2_science-78{fill:#f4a28c;}.cls-3_science-78{opacity:.58;}.cls-3_science-78,.cls-4_science-78,.cls-5_science-78,.cls-6_science-78,.cls-7_science-78,.cls-8_science-78,.cls-9_science-78,.cls-10_science-78{fill:none;}.cls-11_science-78{fill:#ce8172;}.cls-4_science-78{opacity:.44;}.cls-12_science-78{fill:#e6e6e6;}.cls-5_science-78{opacity:.03;}.cls-6_science-78{opacity:.09;}.cls-7_science-78{opacity:.73;}.cls-8_science-78{opacity:.08;}.cls-9_science-78{opacity:.31;}.cls-10_science-78{opacity:.3;}.cls-13_science-78{fill:#24285b;}.cls-14_science-78{fill:#000001;}.cls-15_science-78{fill:#ffd200;}.cls-16_science-78{fill:#68e1fd;}</style></defs><g id="bg_science-78" class="cls-10_science-78"><ellipse class="cls-12_science-78" cx="245.84" cy="206.38" rx="223.13" ry="172.6"/></g><g id="sd_science-78" class="cls-5_science-78"><ellipse class="cls-14_science-78" cx="248.68" cy="440.3" rx="225.97" ry="25.92"/></g><g id="boy_science-78"><path class="cls-16_science-78 targetColor" d="m347.44,421.51s-4.24,3.97-8.83,2.09c-4.59-1.88-7.94,1.83-4.56,4.98,3.38,3.14,16.18,3.28,16.18,3.28l3.76-8.24-6.55-2.11Z" style="fill: rgb(0, 174, 224);"/><path class="cls-16_science-78 targetColor" d="m418.81,419.66s2.08,5.43-1.39,8.97c-3.47,3.54-1.29,8.05,2.89,6.1,4.19-1.95,9.13-13.76,9.13-13.76l-6.22-6.59-4.42,5.27Z" style="fill: rgb(0, 174, 224);"/><path class="cls-13_science-78" d="m430.19,317.72s4.48,17.7-3.31,26.41c-7.79,8.71-19.71,49.97,0,70.6l-7.79,7.33s-34.14-17.42-24.4-80.22l-24.37-24.12h59.88Z"/><path class="cls-16_science-78 targetColor" d="m370.3,216.94s-24.11,6.14-24.29,26.11c-.18,19.97,10.7,54.92-4.81,57.77-15.51,2.85-24.79-40.3-24.79-40.3l-11.06,4.46s11.77,73.72,52.43,61.56c40.66-12.16,12.52-109.6,12.52-109.6Z" style="fill: rgb(0, 174, 224);"/><g class="cls-4_science-78"><path class="cls-1_science-78" d="m370.3,216.94s-24.11,6.14-24.29,26.11c-.18,19.97,10.7,54.92-4.81,57.77-15.51,2.85-24.79-40.3-24.79-40.3l-11.06,4.46s11.77,73.72,52.43,61.56c40.66-12.16,12.52-109.6,12.52-109.6Z"/></g><polygon class="cls-2_science-78" points="392 184.15 399.34 210.05 384.78 213.08 385.28 193.01 392 184.15"/><g class="cls-9_science-78"><path class="cls-11_science-78" d="m384.98,197.4s2.66-.88,4.44-3.42c0,0,.37,4.91-4.42,10.38v-6.97Z"/></g><path class="cls-16_science-78 targetColor" d="m399.34,210.05l-8.64,1.8s-39.52,4.26-41.13,26.57c-1.6,22.31,20.72,79.31,20.72,79.31h59.88s47.98-113.57-30.84-107.67Z" style="fill: rgb(0, 174, 224);"/><path class="cls-13_science-78" d="m383.69,212.65s-1.95,68.7,4.65,105.27h13.12l-3.2-108.3-14.57,3.03Z"/><g class="cls-6_science-78"><path class="cls-14_science-78" d="m404.52,230.72s-4.83,13.93,7.83,23.03c12.66,9.09,6.48,43.33-7.37,48.86-13.85,5.53,8.66,17.35,18.27,12.51,9.61-4.84,10.94-8.1,10.94-8.1,0,0,8.91-25.75,9.85-42.19.94-16.43-39.52-34.11-39.52-34.11Z"/></g><rect class="cls-15_science-78" x="400.36" y="295.54" width="36.14" height="48.24" transform="translate(901.26 529.78) rotate(166.14)"/><g class="cls-6_science-78"><path class="cls-14_science-78" d="m409.55,322.1s-2.24,5.53,5.55,6.67c7.78,1.15,24.19,0,24.19,0l-2.73-11.05-27.01,4.37Z"/></g><path class="cls-16_science-78 targetColor" d="m404.52,230.72c.03-12.27,12.43-20.64,24.09-16.82,10.14,3.33,22.5,9.5,30.02,20.77,14.44,21.67,47.44,84.98-36.33,87.43l-2.46-9.33s50.29-13.91,28.08-43.33c-17.27-22.88-43.45-21.34-43.41-38.72Z" style="fill: rgb(0, 174, 224);"/><g class="cls-4_science-78"><path class="cls-1_science-78" d="m404.52,230.72c.03-12.27,12.43-20.64,24.09-16.82,10.14,3.33,22.5,9.5,30.02,20.77,14.44,21.67,47.44,84.98-36.33,87.43l-2.46-9.33s50.29-13.91,28.08-43.33c-17.27-22.88-43.45-21.34-43.41-38.72Z"/></g><path class="cls-2_science-78" d="m313.83,261.56s-.63-10.67-4.91-13.7-3.57,4.64-3.57,4.64c0,0-4.28-4.99-7.85-2.67-3.57,2.32,7.85,15.16,7.85,15.16l8.48-3.42Z"/><path class="cls-2_science-78" d="m376.91,184.9s.73,8.19,3.04,13.3c.94,2.08,3.42,3.01,5.48,2.05,2.56-1.2,5.68-3.57,5.82-8l1.16-7.5s.56-4.72-4.58-7.19c-5.14-2.47-11.62,2.37-10.92,7.34Z"/><path class="cls-2_science-78" d="m377.64,190.04l-1.7,3.52c-.42.87.21,1.88,1.17,1.89l3.2.03-2.67-5.44Z"/><path class="cls-13_science-78" d="m370.3,317.72l-25.03,104.35,12.51,1.83s25.03-71.51,41.56-86.18l-29.04-20Z"/><path class="cls-2_science-78" d="m420.18,314.06s-8.94-1.44-11.92,4.75c-2.98,6.19,14.04,3.28,14.04,3.28l-2.12-8.03Z"/><path class="cls-13_science-78" d="m394.44,192.75l-5.01-1.22-3.04-1.5s-2.2-.14-1.4-5.46c0,0-10.76,3.71-12.18-2.66-1.55-6.96,6.49-10.06,12.18-9.45,5.7.6,7.45,5.84,7.45,5.84,0,0,8.94-1.42,2.01,14.46Z"/><path class="cls-2_science-78" d="m386.74,190.3s-.49-3.13,1.89-3.3c2.38-.18,3.12,4.34.02,5.32l-1.91-2.02Z"/></g><g id="plant_science-78"><g class="cls-3_science-78"><path class="cls-16_science-78 targetColor" d="m449.08,419.72s-11-3.01-13.4-13.25c0,0,17.05-3.45,17.53,14.15l-4.14-.91Z" style="fill: rgb(0, 174, 224);"/></g><g class="cls-7_science-78"><path class="cls-16_science-78 targetColor" d="m450.43,418.63s-7.69-12.15-.92-23.52c0,0,12.96,8.23,7.2,23.54l-6.28-.03Z" style="fill: rgb(0, 174, 224);"/></g><path class="cls-16_science-78 targetColor" d="m452.41,418.63s4.06-12.83,16.34-15.27c0,0,2.3,8.33-7.95,15.3l-8.39-.04Z" style="fill: rgb(0, 174, 224);"/><polygon class="cls-13_science-78" points="444.43 418.35 446.66 433.61 460.71 433.66 462.78 418.42 444.43 418.35"/></g><g id="science_science-78"><path class="cls-13_science-78" d="m316.8,260.13h-8v-120.51c0-11.1-9.03-20.12-20.12-20.12h-3.49c-11.09,0-20.12,9.03-20.12,20.12v53.88c0,15.51-12.62,28.12-28.12,28.12s-28.12-12.62-28.12-28.12v-9.74c0-11.1-9.03-20.12-20.12-20.12h-5.66c-11.09,0-20.12,9.03-20.12,20.12v25.57h-8v-25.57c0-15.51,12.62-28.12,28.12-28.12h5.66c15.51,0,28.12,12.62,28.12,28.12v9.74c0,11.1,9.03,20.12,20.12,20.12s20.12-9.03,20.12-20.12v-53.88c0-15.51,12.62-28.12,28.12-28.12h3.49c15.51,0,28.12,12.62,28.12,28.12v120.51Z"/><polygon class="cls-12_science-78" points="248.18 431.74 293.08 296.61 293.08 248.94 332.52 248.94 332.52 296.61 377.42 431.74 248.18 431.74"/><polygon class="cls-15_science-78" points="297.96 319.22 327.64 319.22 361.56 421.17 264.04 421.17 297.96 319.22"/><rect class="cls-12_science-78" x="286.69" y="231.77" width="52.21" height="17.18" rx="3.23" ry="3.23"/><g class="cls-5_science-78"><rect class="cls-14_science-78" x="286.69" y="231.77" width="52.21" height="17.18" rx="3.23" ry="3.23"/></g><g class="cls-4_science-78"><circle class="cls-1_science-78" cx="302.94" cy="370.56" r="5.68"/></g><g class="cls-4_science-78"><path class="cls-1_science-78" d="m317.69,388.01c-4.44,0-4.45,6.9,0,6.9s4.45-6.9,0-6.9Z"/></g><g class="cls-4_science-78"><path class="cls-1_science-78" d="m328.71,364.95c-4.44,0-4.45,6.9,0,6.9s4.45-6.9,0-6.9Z"/></g><g class="cls-4_science-78"><path class="cls-1_science-78" d="m289.94,395.79c-4.44,0-4.45,6.9,0,6.9s4.45-6.9,0-6.9Z"/></g><g class="cls-4_science-78"><path class="cls-1_science-78" d="m317.69,337.24c-7.77,0-7.79,12.08,0,12.08s7.79-12.08,0-12.08Z"/></g><g class="cls-4_science-78"><path class="cls-1_science-78" d="m338.4,398.45c-5.55,0-5.56,8.63,0,8.63s5.56-8.63,0-8.63Z"/></g><rect class="cls-12_science-78" x="144.48" y="204.23" width="35.25" height="115.88"/><circle class="cls-12_science-78" cx="162.11" cy="370.19" r="61.54"/><path class="cls-15_science-78" d="m113.97,352.72c-1.66,5.02-2.58,10.38-2.58,15.96,0,28.01,22.71,50.72,50.72,50.72s50.72-22.71,50.72-50.72c0-5.58-.91-10.94-2.58-15.96h-96.28Z"/><rect class="cls-12_science-78" x="135.01" y="194.97" width="54.2" height="18.51" rx="3.84" ry="3.84"/><g class="cls-5_science-78"><rect class="cls-14_science-78" x="135.01" y="194.97" width="54.2" height="18.51" rx="3.84" ry="3.84"/></g><g class="cls-4_science-78"><path class="cls-1_science-78" d="m195.91,366.3c-.17-.53-.47-1-.89-1.39-.39-.42-.85-.72-1.39-.89-.51-.27-1.07-.39-1.66-.37-.38.05-.76.1-1.15.15-.73.2-1.37.57-1.9,1.11-.22.29-.45.58-.67.87-.39.67-.59,1.4-.59,2.18v.44c-.02.59.1,1.15.37,1.66.17.53.47,1,.89,1.39.39.42.85.72,1.39.89.51.27,1.07.39,1.66.37.38-.05.76-.1,1.15-.15.73-.2,1.37-.57,1.9-1.11l.67-.87c.39-.67.59-1.4.59-2.18v-.44c.02-.59-.1-1.15-.37-1.66Z"/></g><g class="cls-4_science-78"><path class="cls-1_science-78" d="m162.87,396.26c-.17-.53-.47-1-.89-1.39-.39-.42-.85-.72-1.39-.89-.51-.27-1.07-.39-1.66-.37-.38.05-.76.1-1.15.15-.73.2-1.37.57-1.9,1.11-.22.29-.45.58-.67.87-.39.67-.59,1.4-.59,2.18v.44c-.02.59.1,1.15.37,1.66.17.53.47,1,.89,1.39.39.42.85.72,1.39.89.51.27,1.07.39,1.66.37.38-.05.76-.1,1.15-.15.73-.2,1.37-.57,1.9-1.11.22-.29.45-.58.67-.87.39-.67.59-1.4.59-2.18v-.44c.02-.59-.1-1.15-.37-1.66Z"/></g><g class="cls-4_science-78"><path class="cls-1_science-78" d="m143.06,359.68c-5.55,0-5.56,8.63,0,8.63s5.56-8.63,0-8.63Z"/></g><g class="cls-4_science-78"><path class="cls-1_science-78" d="m171.26,372.07c-8.88,0-8.9,13.81,0,13.81s8.9-13.81,0-13.81Z"/></g><g class="cls-4_science-78"><path class="cls-1_science-78" d="m140.61,384c-.2-.73-.57-1.37-1.11-1.9-.29-.22-.58-.45-.87-.67-.67-.39-1.4-.59-2.18-.59h-.44c-.59-.02-1.15.1-1.66.37-.53.17-1,.47-1.39.89-.42.39-.72.85-.89,1.39-.27.51-.39,1.07-.37,1.66.05.38.1.76.15,1.15.2.73.57,1.37,1.11,1.9.29.22.58.45.87.67.67.39,1.4.59,2.18.59h.44c.59.02,1.15-.1,1.66-.37.53-.17,1-.47,1.39-.89.42-.39.72-.85.89-1.39.27-.51.39-1.07.37-1.66-.05-.38-.1-.76-.15-1.15Z"/></g><g class="cls-4_science-78"><path class="cls-1_science-78" d="m189.53,397.95c-.15-.29-.29-.59-.44-.88-.27-.5-.64-.91-1.11-1.21-.42-.38-.91-.64-1.47-.77-.57-.18-1.15-.21-1.72-.08-.57.03-1.11.2-1.6.51-.29.22-.58.45-.87.67-.53.54-.9,1.17-1.11,1.9-.05.38-.1.76-.15,1.15,0,.78.2,1.5.59,2.18.15.29.29.59.44.88.27.5.64.91,1.11,1.21.42.38.91.64,1.47.77.57.18,1.15.21,1.72.08.57-.03,1.11-.2,1.6-.51.29-.22.58-.45.87-.67.53-.54.9-1.17,1.11-1.9.05-.38.1-.76.15-1.15,0-.78-.2-1.5-.59-2.18Z"/></g></g><g id="girl_science-78"><polygon class="cls-2_science-78" points="128.96 340.92 134.81 426.05 129.38 427.93 107.76 348.29 128.96 340.92"/><path class="cls-16_science-78 targetColor" d="m134.61,424.8s3.55,3.77,7.62,3.22c4.07-.55,5.17,5.17-1.46,5.14-2.53-.01-4.58-.24-6.15-.51-1.87-.33-3.74.03-5.53.68-.56.2-1.22.13-1.94-.58-2.06-2.03,2.09-7.47,2.09-7.47l5.36-.47Z" style="fill: rgb(0, 174, 224);"/><polygon class="cls-2_science-78" points="76.85 340.92 71.01 426.05 76.44 427.93 98.05 348.29 76.85 340.92"/><path class="cls-16_science-78 targetColor" d="m71.21,424.8s-3.55,3.77-7.62,3.22-5.17,5.17,1.46,5.14c2.53-.01,4.58-.24,6.15-.51,1.87-.33,3.74.03,5.53.68.56.2,1.22.13,1.94-.58,2.06-2.03-2.09-7.47-2.09-7.47l-5.36-.47Z" style="fill: rgb(0, 174, 224);"/><polygon class="cls-2_science-78" points="95.01 195.07 93.43 204.23 85.19 204.83 90.2 190.19 95.01 195.07"/><path class="cls-2_science-78" d="m54.04,218.25c-11,9.41-25.1,26.86-30.37,46.54-3.48,13.01,2.6,26.68,14.63,32.74l36.19,18.22,4.68-6.47-24.93-20.46c-5.7-4.68-6.54-13.09-1.85-18.78,8.19-9.92,19.47-25.69,22.16-39.98,2.19-11.66-11.5-19.52-20.51-11.8Z"/><path class="cls-2_science-78" d="m92.13,181.55c3.05-2.52,7.7-.87,8.72,2.96,1.12,4.2,1.88,10.33-2.98,10.83-7.45.77-8.74-8.83-8.74-8.83,0,0,.69-3.04,3.01-4.95Z"/><rect class="cls-15_science-78" x="45.33" y="301.3" width="52.98" height="37.44" transform="translate(-181.71 111.94) rotate(-37.97)"/><path class="cls-16_science-78 targetColor" d="m122.06,216.05c-18.38-13.49-43.6-13.96-62.44-1.12-8.23,5.61-14.57,13.97-11.67,26.1,6.81,28.44,28.59,47.17,29.27,72.18l51.57-3.46v-32.19c0-6.15,2.5-12.07,7.03-16.23,4.5-4.14,8.97-10.9,5.91-20.17-2.72-8.25-9.76-17.83-19.66-25.09Z" style="fill: rgb(0, 174, 224);"/><path class="cls-2_science-78" d="m93.56,188.46s-.77-1.92-2.3-.6c-1.53,1.32.51,3.45,1.7,3.01s.59-2.41.59-2.41Z"/><g class="cls-8_science-78"><path class="cls-14_science-78" d="m96.53,229.45s-11.14,21.29,1.79,42.05c12.93,20.76-11.58,41.06-11.58,41.06l42.05-2.82v-18.35l-32.26-61.94Z"/></g><path class="cls-13_science-78" d="m73.59,209.24c2.46-3.13,9.48-7.7,8.62-21.85-.18-2.99,1.35-9.16,5.45-12.09,9.8-7.02,17.43.2,14.02,5.05-3.41,4.85-5.27,7.04-5.27,7.04,0,0,11.75,19.82,5.27,27.79-5.76,7.08-38.34,7.07-28.09-5.94Z"/><path class="cls-2_science-78" d="m96.53,229.45c.33-6.48,5.14-12.07,11.59-12.73,3.78-.39,8.2.85,12.67,5.82,8.27,9.19,15.63,32.66,19.37,46.16,1.12,4.05,6.38,5.08,8.96,1.76l26.46-34.01s5.29-8.56,8.27-6.66c2.98,1.9-3.49,6.66-3.49,6.66,0,0,5.28,1.36,3.49,6.47-1.79,5.11-27.46,51.19-37.52,53.1-18.9,3.58-51.67-29.84-49.78-66.56Z"/><polygon class="cls-13_science-78" points="74.95 300.04 128.79 300.04 137.36 374.54 65.99 395.82 74.95 300.04"/></g></svg>