<svg id="_0092_start_up" xmlns="http://www.w3.org/2000/svg" viewBox="0 0 500 500" data-imageid="start-up-14" imageName="Start Up" class="illustrations_image" style="width: 188px;"><defs><style>.cls-1_start-up-14{fill:#fff;}.cls-2_start-up-14{opacity:.39;}.cls-2_start-up-14,.cls-3_start-up-14,.cls-4_start-up-14,.cls-5_start-up-14,.cls-6_start-up-14,.cls-7_start-up-14,.cls-8_start-up-14,.cls-9_start-up-14,.cls-10_start-up-14,.cls-11_start-up-14,.cls-12_start-up-14{fill:none;}.cls-3_start-up-14{opacity:.11;}.cls-13_start-up-14{fill:#f4a28c;}.cls-4_start-up-14{opacity:.58;}.cls-5_start-up-14{opacity:.13;}.cls-6_start-up-14{opacity:.51;}.cls-14_start-up-14{fill:#ce8172;}.cls-15_start-up-14{fill:#e6e6e6;}.cls-7_start-up-14{opacity:.73;}.cls-8_start-up-14{opacity:.08;}.cls-9_start-up-14{opacity:.5;}.cls-10_start-up-14{opacity:.12;}.cls-11_start-up-14{opacity:.31;}.cls-12_start-up-14{opacity:.3;}.cls-16_start-up-14{fill:#24285b;}.cls-17_start-up-14{fill:#000001;}.cls-18_start-up-14{fill:#ffd200;}.cls-19_start-up-14{fill:#68e1fd;}</style></defs><g id="bg_start-up-14"><g class="cls-12_start-up-14"><path class="cls-15_start-up-14" d="m116.06,145.47c-32.89,25.06-52.38,71.06-49.29,119.1,1.58,24.56,8.88,48.25,28.16,61.19,51.42,34.51,275.93,35.09,309.17-25.88,33.23-60.97,20.86-147.61-51.39-183.71-62.64-31.29-151.7-35.43-236.64,29.3Z"/></g><circle class="cls-15_start-up-14" cx="79.62" cy="364.65" r="10.76"/><circle class="cls-15_start-up-14" cx="133.79" cy="67.5" r="10.76"/><circle class="cls-15_start-up-14" cx="450.67" cy="161.09" r="10.76"/><circle class="cls-15_start-up-14" cx="456.76" cy="358.92" r="10.76"/><circle class="cls-15_start-up-14" cx="332.51" cy="157.24" r="6.15"/><circle class="cls-15_start-up-14" cx="144.76" cy="270.04" r="6.15"/><circle class="cls-15_start-up-14" cx="41.41" cy="188.06" r="6.15"/><circle class="cls-15_start-up-14" cx="317.28" cy="56.74" r="6.15"/></g><g id="plant_start-up-14"><g class="cls-4_start-up-14"><path class="cls-19_start-up-14 targetColor" d="m77.43,310.65s-12.8,3.43-21.2-5.44c0,0,15.08-13.44,25.88,3.92l-4.68,1.52Z" style="fill: rgb(0, 174, 224);"/></g><g class="cls-7_start-up-14"><path class="cls-19_start-up-14 targetColor" d="m78.14,308.76s-14.83-7.69-14.7-23.05c0,0,17.83.66,21.02,19.4l-6.32,3.65Z" style="fill: rgb(0, 174, 224);"/></g><path class="cls-19_start-up-14 targetColor" d="m80.13,307.61s-3.44-15.25,7.45-24.89c0,0,7.19,7.01.99,20.01l-8.44,4.88Z" style="fill: rgb(0, 174, 224);"/><polygon class="cls-16_start-up-14" points="71.96 311.99 83.14 326 97.26 317.82 90.41 301.32 71.96 311.99"/></g><g id="person_start-up-14"><path class="cls-19_start-up-14 targetColor" d="m356.3,194.47s-37.92,7.66-34.76,42.96-31.32,54.73-10.21,75.14c21.11,20.42,49.23,8.94,49.23,8.94l-4.26-127.04Z" style="fill: rgb(0, 174, 224);"/><g class="cls-2_start-up-14"><path class="cls-1_start-up-14" d="m356.3,194.47s-37.92,7.66-34.76,42.96-31.32,54.73-10.21,75.14c21.11,20.42,49.23,8.94,49.23,8.94l-4.26-127.04Z"/></g><path class="cls-13_start-up-14" d="m387.66,159.45s-2.91,7.4-3.12,12.83c-.09,2.2,1.66,4.09,3.86,4.14,2.74.07,6.46-.63,8.5-4.41l4.25-5.98s2.53-3.84-.85-8.21c-3.38-4.36-11.08-2.97-12.63,1.62Z"/><polygon class="cls-13_start-up-14" points="399.22 167.54 398.89 193.59 384.54 192.38 390.54 173.91 399.22 167.54"/><path class="cls-16_start-up-14" d="m400.37,172.23h0c-.09.33-.4.55-.75.53-1.24-.06-4.04-.57-5.04-3.92-1.3-4.36,2.06-6.98,2.06-6.98-3.43-.36-5.88-1.08-7.19-1.54-.78-.28-1.53-.64-2.18-1.15l-.27-6.3s-1.45-6.65,2.29-6.89c3.74-.25,4.2,4.06,7.74,2.08,3.54-1.99,4.46-2.84,6.87-.51,2.41,2.33-1.47,3.64,3.17,4.96s4.19,3.25,3.62,5.38c-.14.53-.69,1.11-1.44,1.68-4.21,3.22-7.44,7.56-8.88,12.66Z"/><path class="cls-13_start-up-14" d="m393.83,168.37s.93-2.92,3.06-2.04c2.14.88.83,5.1-2.29,4.61l-.78-2.57Z"/><path class="cls-13_start-up-14" d="m386.06,164.21l-2.99,2.31c-.74.57-.63,1.72.2,2.14l2.75,1.41.04-5.86Z"/><g class="cls-11_start-up-14"><path class="cls-14_start-up-14" d="m389.79,176.39s1.84.18,5.78-1.85c0,0-.89,5.12-7.59,7.27l1.81-5.41Z"/></g><path class="cls-19_start-up-14 targetColor" d="m371.8,191.07c18.06.31,42.43,3.48,68.76,14.7,14.08,6,20.25,22.59,13.39,36.28l-37.42,74.63-69.37-4.11s-12.63-41.94-10.09-89.39c.98-18.29,16.41-32.42,34.72-32.11Z" style="fill: rgb(0, 174, 224);"/><path class="cls-16_start-up-14" d="m416.54,316.67l20.73,114.13h-10.36l-25.99-61.96c-9.2-21.94-25.42-40.21-46.12-51.95l-7.62-4.32,69.37,4.11Z"/><g class="cls-8_start-up-14"><path class="cls-17_start-up-14" d="m422.26,215.69s-16.36,12.1-13.2,33.7,6.41,38.4-13.49,33.37c-19.9-5.02-30.7-51.37-30.7-51.37l-23.24.57,4.02,51.69,13.48.93c6.55.45,12,5.23,13.3,11.67l3.63,18.02,40.48,2.4,5.73-8.51,25.25-27.41,3.16-43.62-28.41-21.45Z"/></g><rect class="cls-18_start-up-14" x="347.7" y="216.33" width="45.05" height="61.7" transform="translate(-15.91 25.68) rotate(-3.89)"/><path class="cls-16_start-up-14" d="m347.17,312.57l10.71,118.23h13.77s-3.22-88.96,21.64-107.9l-46.12-10.33Z"/><path class="cls-19_start-up-14 targetColor" d="m420.72,222.37c.55-15.89,20.43-22.38,30.24-9.88,7.96,10.15,15.28,27.09,14.68,54.92-1.29,59.4-36.16,75.33-89.96,10.33l10.59-8.18s21.2,17.98,40.6,18.24c14.44.2-7.13-37.09-6.14-65.44Z" style="fill: rgb(0, 174, 224);"/><g class="cls-2_start-up-14"><path class="cls-1_start-up-14" d="m420.72,222.37c.55-15.89,20.43-22.38,30.24-9.88,7.96,10.15,15.28,27.09,14.68,54.92-1.29,59.4-36.16,75.33-89.96,10.33l10.59-8.18s21.2,17.98,40.6,18.24c14.44.2-7.13-37.09-6.14-65.44Z"/></g><g class="cls-8_start-up-14"><path class="cls-17_start-up-14" d="m347.58,246.06s15.43,28.46,46.54,20.42l.68,9.96-44.94,3.06-2.27-33.43Z"/></g><path class="cls-13_start-up-14" d="m384.32,271.06s-6.33-11.18-14.09-8.23c-7.76,2.95,5.44,14.91,5.44,14.91l8.65-6.68Z"/></g><g id="rocket_start-up-14"><g class="cls-6_start-up-14"><path class="cls-15_start-up-14" d="m51.64,430.8s-2.93-23.93,13.98-27.39,16,23.93,31.64,13.69c15.64-10.23,5.65-21.77,24.87-31.38,19.22-9.61,22.14,10.59,35.37,14.61,13.23,4.02,15.38-38.9,69.97-22.33,54.59,16.57,56.87,26.33,74.56,9.91,17.7-16.41,50.12-13.72,61.39,16.65,11.28,30.37,34.76-28.46,59.35-13.85,24.59,14.62,14.21,36.91,14.21,36.91l-60.74,13.84-128.78-8.46s-151.85-1.74-154.54-2.21-41.28,0-41.28,0Z"/></g><path class="cls-15_start-up-14" d="m219.58,303.9l8.24,97.77s-32.72-29.52-53.8-1.33c-7.43,9.95-14.61,15.18-40.75,5.28-26.14-9.9-49.98-5.24-54.59,17.42-4.61,22.66-22.3-16.93-41.52,3.25-19.22,20.18,1.54,28.64,59.2,21.72,57.66-6.92,91.49,20.76,138.78,5.38,47.28-15.38,71.12.77,108.02-.77s49.21,2.31,99.95-12.3c50.74-14.61,20.76-36.99,3.08-40.02-17.68-3.03-18.79,25.42-39,18.5-20.2-6.92-21.74-31.43-47.11-26.86-25.37,4.57-14.61,32.94-33.06,22.22-14.17-8.24-8.47-21.37-27.36-27.03-13.21-3.95-27.53-.76-38.21,7.96l-7.85,6.41,9.09-93.87-43.11-3.72Z"/><polygon class="cls-18_start-up-14" points="200.9 167.68 170.96 241.04 206.77 241.04 200.9 167.68"/><polygon class="cls-18_start-up-14" points="281.19 167.68 308.18 241.04 275.32 241.04 281.19 167.68"/><path class="cls-19_start-up-14 targetColor" d="m239.63,50.28v-.42s-.08.07-.22.21c-.15-.14-.23-.21-.23-.21v.44c-5.71,5.75-63.02,68.63-30,247.06h63.46c33.01-178.63-27.16-241.45-33.01-247.08Z" style="fill: rgb(0, 174, 224);"/><g class="cls-3_start-up-14"><path class="cls-16_start-up-14" d="m278.03,140.88l1.82,12.64s-24.23,11.24-54.25,8.7c-10.05-.85-19.86,3.36-25.98,11.38h0s1.86-26,3.12-31.98l75.29-.74Z"/></g><path class="cls-18_start-up-14" d="m239.63,50.28v-.42s-.08.07-.22.21c-.15-.14-.23-.21-.23-.21v.44c-5.71,5.75-63.02,68.63-30,247.06h63.46c33.01-178.63-27.16-241.45-33.01-247.08Z"/><g class="cls-9_start-up-14"><path class="cls-1_start-up-14" d="m239.63,50.28v-.42s-.08.07-.22.21c-.15-.14-.23-.21-.23-.21v.44c-5.71,5.75-63.02,68.63-30,247.06h63.46c33.01-178.63-27.16-241.45-33.01-247.08Z"/></g><g class="cls-8_start-up-14"><path class="cls-17_start-up-14" d="m217.33,199.44l-17.71,19.87s0,21.7,5.35,52.76l44.65-33.16-32.29-39.47Z"/></g><polygon class="cls-18_start-up-14" points="206.77 283.62 209.18 297.35 273.21 297.35 275.74 283.62 206.77 283.62"/><path class="cls-18_start-up-14" d="m205.87,125.29l-.14.38c-1.74,4.88-2.81,9.59-2.81,14.77l-.18,1.18s35.61,20.23,75.29-.74h0c.19-.7.29-1.42.26-2.14-.14-4.63-1.15-9.19-2.98-13.45h0s-69.45,0-69.45,0Z"/><g class="cls-5_start-up-14"><polygon class="cls-17_start-up-14" points="206.77 283.62 209.18 297.35 273.21 297.35 275.74 283.62 206.77 283.62"/></g><g class="cls-5_start-up-14"><path class="cls-17_start-up-14" d="m205.87,125.29l-.14.38c-1.74,4.88-2.81,9.59-2.81,14.77l-.18,1.18s35.61,20.23,75.29-.74h0c.19-.7.29-1.42.26-2.14-.14-4.63-1.15-9.19-2.98-13.45h0s-69.45,0-69.45,0Z"/></g><path class="cls-18_start-up-14" d="m205.87,125.29s33.66,15.66,69.45,0c0,0-5.83-56.9-34.72-83.41,0,0-24.26,19.12-34.72,83.41Z"/><circle class="cls-16_start-up-14" cx="241.39" cy="213.38" r="27.66"/><path class="cls-1_start-up-14" d="m242.4,198.47c.82,0,1.07.28,1.07,1.1v1.74c3.27.46,5.16,2.1,6.55,4.95.43.85.25,1.32-.71,1.74l-1.74.78c-.82.39-1.21.21-1.67-.64-.96-1.85-2.14-2.74-4.55-2.74-3.02,0-4.41.89-4.41,2.92,0,1.32,1.21,2.14,2.46,2.38.6.14,1.46.28,2.56.39,1.99.18,2.99.32,4.73.92.89.32,1.57.68,2.1,1.14,1,.93,1.89,2.7,1.89,4.98,0,3.88-2.6,6.51-7.19,7.19v1.85c0,.82-.25,1.1-1.07,1.1h-1.96c-.82,0-1.1-.28-1.1-1.1v-1.81c-3.56-.46-5.94-2.28-7.12-5.48-.28-.78,0-1.32.82-1.64l1.74-.64c.89-.32,1.28-.11,1.67.78.78,1.99,2.38,2.99,4.8,2.99,3.27,0,4.91-1.03,4.91-3.13,0-1.1-.5-1.78-1.53-2.21-1.03-.39-1.92-.53-3.52-.68-1.96-.18-3.06-.39-4.77-1.03-.85-.32-1.53-.71-2.06-1.17-1.07-.96-1.92-2.67-1.92-4.84,0-3.84,2.42-6.4,6.97-7.01v-1.74c0-.82.28-1.1,1.1-1.1h1.96Z"/><polygon class="cls-18_start-up-14" points="209.18 297.35 170.96 343.54 251.01 316.02 251.01 297.35 209.18 297.35"/><polygon class="cls-18_start-up-14" points="272.92 297.35 311.13 343.54 231.09 316.02 231.09 297.35 272.92 297.35"/></g><g id="check_1_start-up-14"><polygon class="cls-15_start-up-14" points="371.54 86.19 371.54 116.95 391.41 116.95 395.76 129.18 400.89 116.95 420.76 116.95 420.76 86.19 371.54 86.19"/><g class="cls-10_start-up-14"><path class="cls-17_start-up-14" d="m393.67,108.43s-.04,0-.07,0c-.45-.02-.87-.24-1.15-.59l-5.2-6.69c-.52-.67-.4-1.64.27-2.16.67-.52,1.64-.4,2.16.27l4.08,5.26,10.08-10.88c.57-.62,1.55-.66,2.17-.08.62.58.66,1.55.08,2.17l-11.31,12.21c-.29.31-.7.49-1.13.49Z"/></g></g></svg>